<svg xmlns="http://www.w3.org/2000/svg" width="133" height="13" viewBox="0 0 133 13" fill="none">
<path d="M2.55754 13H0.477543V0.26H2.55754V13ZM19.7114 12.974H17.6314V3.406L18.4114 2.106H17.2414L14.0434 9.36H12.5354L9.44145 2.106H8.27145L9.05145 3.406V12.974H6.97145V0.26H10.6894L13.2634 6.344H13.5234L16.0974 0.26H19.7114V12.974ZM35.0494 13H32.9694V9.36H26.2094V13H24.1294V2.08C24.1294 1.57733 24.3028 1.15267 24.6494 0.806C25.0134 0.442 25.4468 0.26 25.9494 0.26H35.0494V13ZM32.9694 7.54V2.08H26.2094V9.1L27.7694 7.54H32.9694ZM50.2493 13H48.1693V11.44L46.6093 13H41.1493C40.6639 13 40.2393 12.818 39.8753 12.454C39.5113 12.09 39.3293 11.6653 39.3293 11.18V2.08C39.3293 1.59467 39.5113 1.17 39.8753 0.806C40.2393 0.442 40.6639 0.26 41.1493 0.26H50.2493V2.08H41.4093V11.18H48.1693V7.54H44.7893L46.6093 5.72H50.2493V13ZM63.1274 13H54.0274V3.9L55.8474 2.08H54.0274V0.26H63.1274V2.08H56.1074V7.28L57.6674 5.72H63.1274V7.54H56.1074V11.18H63.1274V13ZM75.3474 11.18C75.3474 11.6827 75.1654 12.116 74.8014 12.48C74.4547 12.8267 74.0301 13 73.5274 13H66.2474V11.18H73.2674V7.54H68.0674C67.5647 7.54 67.1314 7.36667 66.7674 7.02C66.4207 6.656 66.2474 6.22267 66.2474 5.72V2.08C66.2474 1.57733 66.4207 1.15267 66.7674 0.806C67.1314 0.442 67.5647 0.26 68.0674 0.26H75.3474V2.08H68.3274V5.72H73.5274C74.0301 5.72 74.4547 5.902 74.8014 6.266C75.1654 6.61267 75.3474 7.03733 75.3474 7.54V11.18ZM90.8235 0.26L85.0515 5.642V5.902H88.3535C88.8561 5.902 89.2808 6.084 89.6275 6.448C89.9915 6.79467 90.1735 7.21933 90.1735 7.722V13H88.0935V7.54H81.3335V13H79.2535V0.26H81.3335V7.202L88.2495 0.26H90.8235ZM96.1555 13H94.0755V0.26H96.1555V13ZM109.669 13H100.569V0.26H102.649V11.18H107.589V9.36H109.669V13ZM121.115 13H112.014V0.26H114.094V11.18H119.034V9.36H121.115V13ZM132.04 11.18C132.04 11.6827 131.858 12.116 131.494 12.48C131.147 12.8267 130.722 13 130.22 13H122.94V11.18H129.96V7.54H124.76C124.257 7.54 123.824 7.36667 123.46 7.02C123.113 6.656 122.94 6.22267 122.94 5.72V2.08C122.94 1.57733 123.113 1.15267 123.46 0.806C123.824 0.442 124.257 0.26 124.76 0.26H132.04V2.08H125.02V5.72H130.22C130.722 5.72 131.147 5.902 131.494 6.266C131.858 6.61267 132.04 7.03733 132.04 7.54V11.18Z" fill="black"/>
</svg>