<svg xmlns="http://www.w3.org/2000/svg" width="51" height="43" viewBox="0 0 51 43" fill="none">
<path d="M17.4182 28.1375C15.6311 27.2777 14.0572 25.9731 12.604 24.1526C11.4119 22.6579 10.3026 20.8358 9.00645 18.2448C9.0048 18.2414 9.00315 18.2398 9.00149 18.2365C8.21454 16.7203 6.88532 15.6984 5.35274 15.4355C4.65837 15.3165 3.96731 15.3578 3.29774 15.5579C2.60833 15.7645 1.98174 16.1283 1.43451 16.6392C0.429329 17.5371 -0.0765684 18.8169 0.00940118 20.2438C0.0490795 20.887 0.204486 21.5352 0.473968 22.1685C0.73849 22.7935 1.10055 23.3738 1.54693 23.893C1.55024 23.8963 1.55355 23.9013 1.55851 23.9046C2.42978 24.8686 3.48621 25.7499 4.6964 26.5254C5.88509 27.2876 7.18952 27.9242 8.56999 28.4202C9.97361 28.9229 11.4136 29.2635 12.8536 29.4322C13.5463 29.5132 14.2308 29.5545 14.9053 29.5545C15.6972 29.5545 16.4726 29.4983 17.2281 29.3859C17.5158 29.3429 17.7406 29.118 17.7853 28.8303C17.8283 28.5459 17.6795 28.2632 17.4182 28.1375Z" fill="#06D6A0"/>
<path d="M40.7839 19.3997C39.7671 18.2721 38.6132 17.28 37.3583 16.4516C36.1382 15.6464 34.8189 14.9949 33.4368 14.5121C30.7188 13.5646 27.776 13.2868 24.9258 13.7101C24.6382 13.7531 24.4133 13.978 24.3687 14.2657C24.3257 14.5534 24.4745 14.8345 24.7357 14.9602C26.5129 15.815 28.1993 17.2287 29.7484 19.1583C31.0561 20.787 32.225 22.7431 33.1293 24.8182C33.4269 25.5275 33.9063 26.1575 34.5164 26.6387C35.0934 27.0934 35.7861 27.4158 36.5185 27.5745C36.8607 27.6489 37.2112 27.6853 37.5584 27.6853C37.9502 27.6853 38.3404 27.639 38.714 27.5448C39.4646 27.3579 40.1573 26.9826 40.7178 26.4601C41.179 26.0484 41.5411 25.5573 41.7924 25.0017C42.0288 24.4809 42.1644 23.9154 42.1941 23.3185C42.2685 21.9114 41.7411 20.448 40.7839 19.3997Z" fill="#FF4F79"/>
<path d="M31.068 2.53975C30.2332 1.38397 28.9287 0.573766 27.2986 0.195121C27.2854 0.191814 27.2722 0.19016 27.2589 0.186853C26.0438 -0.016524 24.8187 -0.0545538 23.6151 0.0760706C22.4612 0.200081 21.3221 0.477865 20.2326 0.901154C18.1362 1.71632 16.2383 3.06555 14.7421 4.80666C13.2459 6.54777 12.1944 8.62949 11.7017 10.8253C11.4455 11.9662 11.3413 13.1336 11.3926 14.2943C11.4455 15.503 11.6654 16.71 12.0489 17.879C12.1332 18.1353 12.3647 18.3155 12.6342 18.3337C12.6491 18.3354 12.6639 18.3354 12.6788 18.3354C12.9318 18.3354 13.1632 18.1915 13.274 17.9617C15.5919 13.1484 18.9678 11.0022 24.2202 11.0022C24.3442 11.0022 25.0221 11.0006 25.6205 10.9989C26.1182 10.9973 26.5877 10.9956 26.6571 10.9956C26.6621 10.9956 26.6671 10.9956 26.6737 10.9956C28.1517 10.9609 29.4545 10.4351 30.4398 9.47772C31.3375 8.60469 31.9029 7.42741 32.0319 6.16251C32.1609 4.86618 31.8186 3.57978 31.068 2.53975Z" fill="#F4E04D"/>
<path d="M30.8097 28.6347C30.7568 27.426 30.5369 26.219 30.1534 25.05C30.0691 24.7937 29.8376 24.6135 29.5681 24.5953C29.2987 24.5771 29.0457 24.7242 28.9283 24.9673C26.6104 29.7806 23.2345 31.9268 17.9821 31.9268C17.8581 31.9268 17.1802 31.9284 16.5818 31.9301C16.0841 31.9317 15.6146 31.9334 15.5452 31.9334C15.5402 31.9334 15.5352 31.9334 15.5286 31.9334C14.0506 31.9697 12.7478 32.4939 11.7625 33.4529C10.8648 34.3259 10.2994 35.5032 10.1704 36.7698C10.0381 38.0661 10.3804 39.3525 11.131 40.3925C11.9659 41.5483 13.2703 42.3585 14.9004 42.7355C14.9136 42.7388 14.9268 42.7405 14.9401 42.7438C15.684 42.8678 16.433 42.9306 17.1769 42.9306C17.6481 42.9306 18.1176 42.9058 18.5839 42.8562C19.7378 42.7322 20.8769 42.4544 21.9664 42.0311C24.0628 41.216 25.9607 39.8667 27.4569 38.1256C28.9531 36.3845 30.0046 34.3028 30.4973 32.1053C30.7568 30.9628 30.861 29.7954 30.8097 28.6347Z" fill="#7692FF"/>
<path d="M27.1744 20.4316C25.9973 19.8512 24.9259 19.0873 23.9902 18.1597C23.0544 17.2321 22.2807 16.1689 21.6905 14.9966C21.5781 14.7734 21.3499 14.6328 21.1003 14.6328C20.8506 14.6328 20.6225 14.7734 20.5101 14.9966C19.9199 16.1672 19.1461 17.2321 18.2104 18.1597C17.2746 19.0873 16.205 19.8512 15.0279 20.4332C14.803 20.544 14.6592 20.7738 14.6592 21.0268C14.6592 21.2798 14.8014 21.508 15.0279 21.6204C16.205 22.2008 17.2746 22.9647 18.2104 23.8923C19.1461 24.8199 19.9182 25.8831 20.5101 27.0537C20.6225 27.2769 20.8506 27.4175 21.1003 27.4175C21.3499 27.4175 21.5781 27.2769 21.6905 27.0537C22.2807 25.8831 23.0544 24.8182 23.9902 23.8923C24.9259 22.9647 25.9973 22.2008 27.1744 21.6204C27.4009 21.5096 27.5431 21.2798 27.5431 21.0268C27.5431 20.7738 27.4009 20.544 27.1744 20.4316Z" fill="#2A2A2C"/>
</svg>
